<svg width="108" height="120" viewBox="0 0 108 120" fill="none" xmlns="http://www.w3.org/2000/svg">
<g clip-path="url(#clip0_6_313)">
<path fill-rule="evenodd" clip-rule="evenodd" d="M27.3451 14.0822C27.5892 13.6562 28.1305 13.51 28.5539 13.7557L80.3297 43.7928C80.7532 44.0385 80.8985 44.5829 80.6543 45.0089C80.4101 45.4349 79.8689 45.5811 79.4454 45.3354L27.6696 15.2983C27.2462 15.0527 27.1009 14.5082 27.3451 14.0822Z" fill="#845EF7"/>
<path fill-rule="evenodd" clip-rule="evenodd" d="M47.6489 1.70441C49.58 0.587824 51.7704 0 54 0C56.2296 0 58.42 0.587824 60.3511 1.70441C60.3517 1.70477 60.3523 1.70512 60.3529 1.70548L101.647 25.3466C103.577 26.4628 105.179 28.0677 106.294 30.0004C107.41 31.9331 107.998 34.1256 108 36.3579V83.6421C107.998 85.8744 107.41 88.0669 106.294 89.9996C105.179 91.9323 103.577 93.5372 101.647 94.6534L101.644 94.6554L60.3529 118.295C60.3526 118.295 60.3523 118.295 60.3519 118.295C58.4206 119.412 56.23 120 54 120C51.77 120 49.5794 119.412 47.6481 118.295C47.6477 118.295 47.6474 118.295 47.6471 118.295L6.35644 94.6554L6.35294 94.6534C4.42331 93.5372 2.82058 91.9323 1.70552 89.9996C0.59046 88.0669 0.0022854 85.8744 0 83.6421V36.3579C0.0022854 34.1256 0.59046 31.9331 1.70552 30.0004C2.82058 28.0677 4.42332 26.4628 6.35294 25.3466L6.35644 25.3446L47.6471 1.70548C47.6477 1.70512 47.6483 1.70477 47.6489 1.70441ZM54 1.81855C52.0883 1.81855 50.2102 2.32272 48.5546 3.28038L48.5511 3.2824L7.2605 26.9215C7.25989 26.9219 7.25928 26.9222 7.25866 26.9226C5.60552 27.8793 4.23241 29.2545 3.277 30.9105C2.32131 32.5669 1.81717 34.4461 1.81513 36.3593V83.6407C1.81717 85.5539 2.32131 87.433 3.277 89.0895C4.23236 90.7454 5.60537 92.1206 7.25839 93.0772C7.25909 93.0777 7.2598 93.0781 7.2605 93.0785L48.5546 116.72C50.2102 117.677 52.0883 118.181 54 118.181C55.9117 118.181 57.7898 117.677 59.4454 116.72L59.4489 116.718L100.739 93.0785C100.74 93.0781 100.741 93.0777 100.742 93.0772C102.395 92.1206 103.768 90.7454 104.723 89.0895C105.679 87.4329 106.183 85.5536 106.185 83.6402V36.3598C106.183 34.4464 105.679 32.5671 104.723 30.9105C103.768 29.2545 102.394 27.8793 100.741 26.9226C100.741 26.9222 100.74 26.9219 100.739 26.9215L59.4489 3.2824L59.4454 3.28038C57.7898 2.32272 55.9117 1.81855 54 1.81855Z" fill="#845EF7"/>
<path fill-rule="evenodd" clip-rule="evenodd" d="M1.93597 30.4433C2.18372 30.019 2.73173 29.874 3.16 30.1194L53.5465 58.9962L103.933 30.1194C104.361 29.874 104.909 30.019 105.157 30.4433C105.405 30.8676 105.258 31.4105 104.83 31.656L53.9951 60.7898C53.7176 60.9489 53.3755 60.9489 53.0979 60.7898L2.26286 31.656C1.83458 31.4105 1.68823 30.8676 1.93597 30.4433Z" fill="#845EF7"/>
<path fill-rule="evenodd" clip-rule="evenodd" d="M53.5462 59.0909C54.0475 59.0909 54.4538 59.4888 54.4538 59.9796V118.202C54.4538 118.693 54.0475 119.091 53.5462 119.091C53.045 119.091 52.6387 118.693 52.6387 118.202V59.9796C52.6387 59.4888 53.045 59.0909 53.5462 59.0909Z" fill="#845EF7"/>
</g>
<defs>
<clipPath id="clip0_6_313">
<rect width="108" height="120" fill="white"/>
</clipPath>
</defs>
</svg>
