<svg width="108" height="78" viewBox="0 0 108 78" fill="none" xmlns="http://www.w3.org/2000/svg">
<path fill-rule="evenodd" clip-rule="evenodd" d="M69.2347 28.9682C63.8824 28.9682 59.5434 33.3072 59.5434 38.6595C59.5434 44.0119 63.8824 48.3508 69.2347 48.3508C74.587 48.3508 78.926 44.0119 78.926 38.6595C78.926 33.3072 74.587 28.9682 69.2347 28.9682ZM58.332 38.6595C58.332 32.6381 63.2133 27.7568 69.2347 27.7568C75.2561 27.7568 80.1374 32.6381 80.1374 38.6595C80.1374 44.6809 75.2561 49.5622 69.2347 49.5622C63.2133 49.5622 58.332 44.6809 58.332 38.6595Z" fill="#845EF7"/>
<path fill-rule="evenodd" clip-rule="evenodd" d="M69.5384 1.7146C67.874 1.7146 66.2779 2.37575 65.101 3.55262C63.9241 4.72949 63.263 6.32567 63.263 7.99001V8.57504L63.263 8.57746C63.2581 9.80328 62.8949 11.0009 62.218 12.0229C61.5412 13.045 60.5803 13.8468 59.4536 14.3297C59.378 14.3621 59.2966 14.3788 59.2143 14.3788H59.0637C57.9465 14.8443 56.7176 14.9776 55.5249 14.7614C54.2892 14.5373 53.1489 13.9482 52.2511 13.07L52.2463 13.0653L52.0398 12.8588C51.457 12.2753 50.7647 11.8122 50.0028 11.4964C49.241 11.1806 48.4244 11.018 47.5997 11.018C46.7751 11.018 45.9585 11.1806 45.1966 11.4964C44.4348 11.8122 43.7427 12.2751 43.1599 12.8585L43.1594 12.859C42.5759 13.4418 42.1131 14.1339 41.7973 14.8958C41.4815 15.6576 41.3189 16.4742 41.3189 17.2989C41.3189 18.1236 41.4815 18.9402 41.7973 19.702C42.1131 20.4638 42.5759 21.1559 43.1594 21.7387L43.3709 21.9502C44.2491 22.848 44.8382 23.9883 45.0622 25.2241C45.2852 26.4535 45.1366 27.7214 44.6357 28.8658C44.199 30.0419 43.4204 31.0606 42.3997 31.7906C41.3739 32.5243 40.151 32.9324 38.8901 32.9619L38.8759 32.9621H38.5662C36.9018 32.9621 35.3057 33.6233 34.1288 34.8001C32.9519 35.977 32.2908 37.5732 32.2908 39.2375C32.2908 40.9019 32.9519 42.498 34.1288 43.6749C35.3057 44.8518 36.9018 45.5129 38.5662 45.5129H39.1536C40.3795 45.5178 41.5771 45.881 42.5991 46.5579C43.6203 47.2341 44.4216 48.194 44.9046 49.3194C45.4106 50.4676 45.5614 51.741 45.3375 52.9757C45.1135 54.2114 44.5244 55.3517 43.6461 56.2495L43.6415 56.2543L43.435 56.4608C42.8515 57.0436 42.3884 57.7359 42.0726 58.4977C41.7568 59.2596 41.5942 60.0762 41.5942 60.9009C41.5942 61.7255 41.7568 62.5421 42.0726 63.304C42.3884 64.0658 42.8513 64.7579 43.4347 65.3407L43.4352 65.3412C44.018 65.9247 44.7101 66.3875 45.4719 66.7033C46.2338 67.0191 47.0504 67.1817 47.875 67.1817C48.6997 67.1817 49.5163 67.0191 50.2782 66.7033C51.04 66.3875 51.7321 65.9247 52.3149 65.3412L52.5264 65.1297C53.4242 64.2515 54.5645 63.6624 55.8002 63.4384C57.0297 63.2154 58.2976 63.364 59.4419 63.8649C60.6181 64.3016 61.6368 65.0802 62.3668 66.1009C63.1005 67.1267 63.5086 68.3496 63.5381 69.6105L63.5383 69.6247V69.9344C63.5383 71.5988 64.1994 73.1949 65.3763 74.3718C66.5532 75.5487 68.1493 76.2098 69.8137 76.2098C71.478 76.2098 73.0742 75.5487 74.2511 74.3718C75.4279 73.1949 76.0891 71.5988 76.0891 69.9344V69.3494L76.0891 69.347C76.094 68.1211 76.4572 66.9235 77.1341 65.9015C77.8102 64.8804 78.77 64.0792 79.8953 63.5961C81.0435 63.09 82.317 62.9392 83.5518 63.1631C84.7876 63.3871 85.9279 63.9762 86.8257 64.8545L86.8305 64.8591L87.0369 65.0656C87.6198 65.6491 88.3121 66.1122 89.0739 66.428C89.8357 66.7438 90.6523 66.9064 91.477 66.9064C92.3017 66.9064 93.1183 66.7438 93.8801 66.428C94.642 66.1122 95.3341 65.6493 95.9169 65.0659L95.9174 65.0654C96.5008 64.4826 96.9637 63.7905 97.2795 63.0287C97.5953 62.2668 97.7579 61.4502 97.7579 60.6255C97.7579 59.8009 97.5953 58.9843 97.2795 58.2224C96.9637 57.4606 96.5008 56.7685 95.9174 56.1857L95.7059 55.9742C94.8277 55.0764 94.2386 53.9361 94.0145 52.7004C93.7906 51.4656 93.9415 50.1921 94.4476 49.0438C94.9307 47.9185 95.7319 46.9588 96.753 46.2826C97.775 45.6057 98.9726 45.2425 100.198 45.2376L100.201 45.2376L100.511 45.2376C102.175 45.2376 103.771 44.5765 104.948 43.3996C106.125 42.2227 106.786 40.6266 106.786 38.9622C106.786 37.2979 106.125 35.7017 104.948 34.5248C103.771 33.348 102.175 32.6868 100.511 32.6868H99.9256L99.9231 32.6868C98.6973 32.6819 97.4997 32.3187 96.4777 31.6418C95.4556 30.965 94.6538 30.0041 94.1709 28.8774C94.1385 28.8018 94.1218 28.7204 94.1218 28.6381V28.4875C93.6563 27.3703 93.523 26.1415 93.7392 24.9488C93.9633 23.713 94.5524 22.5727 95.4306 21.6749L95.4353 21.6701L95.6418 21.4637C96.2253 20.8808 96.6884 20.1885 97.0042 19.4267C97.32 18.6649 97.4825 17.8483 97.4825 17.0236C97.4825 16.1989 97.32 15.3823 97.0042 14.6205C96.6884 13.8586 96.2255 13.1665 95.642 12.5837L95.6416 12.5832C95.0588 11.9998 94.3666 11.5369 93.6048 11.2211C92.843 10.9053 92.0264 10.7427 91.2017 10.7427C90.377 10.7427 89.5604 10.9053 88.7986 11.2211C88.0368 11.5369 87.3447 11.9998 86.7619 12.5832L86.5504 12.7947C85.6526 13.6729 84.5123 14.262 83.2765 14.4861C82.0419 14.7099 80.7685 14.5591 79.6203 14.0531C78.4948 13.5701 77.535 12.7688 76.8587 11.7476C76.1819 10.7256 75.8187 9.52797 75.8138 8.30215L75.8138 8.29973V7.99001C75.8138 6.32567 75.1526 4.72949 73.9758 3.55262C72.7989 2.37575 71.2027 1.7146 69.5384 1.7146ZM64.2421 2.69377C65.6468 1.28912 67.5519 0.5 69.5384 0.5C71.5249 0.5 73.43 1.28912 74.8346 2.69377C76.2393 4.09842 77.0284 6.00354 77.0284 7.99001L77.0284 8.29731C77.0284 8.29769 77.0284 8.29806 77.0284 8.29844C77.0326 9.28699 77.3256 10.2528 77.8714 11.077C78.4175 11.9015 79.1927 12.5484 80.1017 12.938L80.1077 12.9406C81.0346 13.3497 82.0629 13.4717 83.0598 13.291C84.0557 13.1104 84.9748 12.6359 85.6988 11.9286C85.6995 11.9279 85.7003 11.9271 85.7011 11.9264L85.9025 11.7249C85.9025 11.7249 85.9026 11.7248 85.9025 11.7249C86.5981 11.0286 87.4243 10.476 88.3335 10.0991C89.2428 9.72216 90.2174 9.52814 91.2017 9.52814C92.186 9.52814 93.1607 9.72216 94.0699 10.0991C94.979 10.4759 95.8049 11.0282 96.5004 11.7244C97.1968 12.42 97.7493 13.2461 98.1262 14.1553C98.5031 15.0646 98.6971 16.0393 98.6971 17.0236C98.6971 18.0079 98.5031 18.9825 98.1262 19.8918C97.7493 20.8011 97.1968 21.6271 96.5004 22.3228L96.2989 22.5242C96.2981 22.525 96.2973 22.5258 96.2966 22.5266C95.5893 23.2506 95.1149 24.1696 94.9343 25.1655C94.7536 26.1624 94.8756 27.1907 95.2847 28.1176C95.3188 28.1949 95.3364 28.2784 95.3364 28.3628V28.5098C95.7301 29.371 96.3575 30.1055 97.1483 30.6292C97.9725 31.175 98.9383 31.468 99.9268 31.4722H100.511C102.497 31.4722 104.402 32.2613 105.807 33.666C107.211 35.0706 108.001 36.9757 108.001 38.9622C108.001 40.9487 107.211 42.8538 105.807 44.2584C104.402 45.6631 102.497 46.4522 100.511 46.4522L100.203 46.4522C100.203 46.4522 100.203 46.4522 100.202 46.4522C99.2136 46.4564 98.2478 46.7494 97.4236 47.2952C96.5991 47.8413 95.9522 48.6165 95.5626 49.5255L95.56 49.5315C95.1509 50.4585 95.0289 51.4867 95.2096 52.4837C95.3902 53.4795 95.8646 54.3985 96.5718 55.1224C96.5726 55.1232 96.5734 55.1241 96.5742 55.1249L96.7757 55.3264C96.7757 55.3263 96.7758 55.3264 96.7757 55.3264C97.472 56.0219 98.0246 56.8482 98.4015 57.7573C98.7784 58.6666 98.9725 59.6412 98.9725 60.6255C98.9725 61.6098 98.7784 62.5845 98.4015 63.4938C98.0246 64.4029 97.4723 65.2289 96.776 65.9245C96.0804 66.6208 95.2544 67.1731 94.3452 67.55C93.436 67.927 92.4613 68.121 91.477 68.121C90.4927 68.121 89.5181 67.927 88.6088 67.55C87.6996 67.1731 86.8736 66.6208 86.1781 65.9245C86.178 65.9244 86.1782 65.9246 86.1781 65.9245L85.9764 65.7227C85.9755 65.7219 85.9747 65.7211 85.9739 65.7203C85.25 65.0131 84.331 64.5387 83.3351 64.3582C82.3382 64.1774 81.3099 64.2994 80.383 64.7085L80.377 64.7112C79.468 65.1007 78.6928 65.7476 78.1467 66.5721C77.6009 67.3963 77.3079 68.3621 77.3037 69.3507C77.3037 69.3511 77.3037 69.3514 77.3037 69.3518L77.3037 69.9344C77.3037 71.9209 76.5146 73.826 75.1099 75.2307C73.7053 76.6353 71.8002 77.4244 69.8137 77.4244C67.8272 77.4244 65.9221 76.6353 64.5175 75.2307C63.1128 73.826 62.3237 71.9209 62.3237 69.9344V69.632C62.2986 68.6172 61.9694 67.6332 61.3788 66.8075C60.7869 65.9799 59.9597 65.3494 59.0047 64.9982C58.9982 64.9958 58.9918 64.9934 58.9854 64.9908C58.98 64.9885 58.9745 64.9862 58.9691 64.9838C58.0422 64.5747 57.0139 64.4527 56.0169 64.6335C55.0211 64.814 54.102 65.2885 53.3781 65.9957C53.3773 65.9965 53.3765 65.9973 53.3757 65.998L53.1742 66.1996C52.4786 66.896 51.6525 67.4484 50.7433 67.8253C49.834 68.2023 48.8594 68.3963 47.875 68.3963C46.8907 68.3963 45.9161 68.2023 45.0068 67.8253C44.0975 67.4484 43.2715 66.896 42.5759 66.1996C41.8797 65.504 41.3274 64.6781 40.9506 63.7691C40.5736 62.8598 40.3796 61.8852 40.3796 60.9009C40.3796 59.9166 40.5736 58.9419 40.9506 58.0326C41.3275 57.1235 41.8798 56.2975 42.5761 55.6019C42.576 55.602 42.5762 55.6018 42.5761 55.6019L42.7779 55.4002C42.7786 55.3994 42.7794 55.3986 42.7801 55.3979C43.4874 54.6739 43.9619 53.7549 44.1424 52.759C44.3232 51.762 44.2012 50.7337 43.7921 49.8068L43.7894 49.8008C43.3999 48.8918 42.753 48.1166 41.9285 47.5706C41.1043 47.0247 40.1385 46.7317 39.1499 46.7275C39.1495 46.7275 39.1492 46.7275 39.1488 46.7275L38.5662 46.7275C36.5797 46.7275 34.6746 45.9384 33.2699 44.5338C31.8653 43.1291 31.0762 41.224 31.0762 39.2375C31.0762 37.251 31.8653 35.3459 33.2699 33.9413C34.6746 32.5366 36.5797 31.7475 38.5662 31.7475H38.8686C39.8834 31.7224 40.8674 31.3933 41.6931 30.8027C42.5207 30.2107 43.1511 29.3835 43.5024 28.4285C43.5068 28.4165 43.5116 28.4046 43.5168 28.3929C43.9259 27.466 44.0479 26.4377 43.8671 25.4408C43.6866 24.4449 43.2121 23.5258 42.5048 22.8019L42.301 22.5981C41.6046 21.9024 41.0522 21.0764 40.6753 20.1671C40.2983 19.2578 40.1043 18.2832 40.1043 17.2989C40.1043 16.3146 40.2983 15.3399 40.6753 14.4307C41.0522 13.5214 41.6046 12.6953 42.301 11.9997C42.9966 11.3035 43.8224 10.7512 44.7315 10.3744C45.6408 9.99746 46.6154 9.80345 47.5997 9.80345C48.584 9.80345 49.5587 9.99746 50.468 10.3744C51.3771 10.7513 52.2031 11.3037 52.8987 11.9999C52.8986 11.9999 52.8988 12 52.8987 11.9999L53.1028 12.204C53.8267 12.9113 54.7458 13.3857 55.7416 13.5663C56.7386 13.747 57.7668 13.625 58.6938 13.2159C58.7711 13.1818 58.8546 13.1642 58.939 13.1642H59.086C59.9471 12.7705 60.6816 12.1431 61.2053 11.3523C61.7512 10.5281 62.0442 9.5623 62.0484 8.57375V7.99001C62.0484 6.00354 62.8375 4.09842 64.2421 2.69377Z" fill="#845EF7"/>
<path fill-rule="evenodd" clip-rule="evenodd" d="M22.8821 55.9933C20.6871 55.1944 18.2601 56.3261 17.4612 58.5211C16.6623 60.716 17.7941 63.143 19.989 63.9419C22.184 64.7408 24.611 63.6091 25.4099 61.4141C26.2088 59.2192 25.077 56.7922 22.8821 55.9933ZM16.9644 58.3402C17.8632 55.8709 20.5936 54.5977 23.0629 55.4965C25.5322 56.3953 26.8054 59.1256 25.9067 61.5949C25.0079 64.0643 22.2775 65.3375 19.8082 64.4387C17.3389 63.5399 16.0657 60.8096 16.9644 58.3402Z" fill="#845EF7" stroke="#845EF7" stroke-linecap="round" stroke-linejoin="round"/>
<path fill-rule="evenodd" clip-rule="evenodd" d="M27.0742 44.8618C26.3917 44.6134 25.6384 44.6463 24.9801 44.9533C24.3218 45.2602 23.8124 45.8161 23.564 46.4986L23.4767 46.7386L23.4763 46.7396C23.2914 47.2415 22.9636 47.6785 22.5335 47.9966C22.1034 48.3147 21.5897 48.5 21.0555 48.5299C21.0197 48.5319 20.9838 48.5266 20.9501 48.5143L20.8883 48.4918C20.3607 48.516 19.8368 48.3873 19.38 48.1205C18.9067 47.8442 18.527 47.4324 18.2899 46.9383L18.2886 46.9356L18.2348 46.8201C18.0829 46.4938 17.8681 46.2006 17.6028 45.9574C17.3375 45.7141 17.0269 45.5256 16.6887 45.4025C16.3505 45.2794 15.9913 45.2242 15.6318 45.24C15.2722 45.2558 14.9193 45.3423 14.5932 45.4946L14.5929 45.4947C14.2667 45.6466 13.9736 45.8614 13.7303 46.1266C13.4871 46.3919 13.2986 46.7025 13.1755 47.0407C13.0524 47.3789 12.9971 47.7381 13.0129 48.0976C13.0287 48.4572 13.1153 48.8101 13.2675 49.1362L13.3227 49.2545C13.5488 49.7538 13.6202 50.3093 13.5277 50.8495C13.4356 51.387 13.1854 51.8848 12.8092 52.2793C12.4545 52.6964 11.9832 52.998 11.4556 53.145C10.9254 53.2928 10.363 53.2776 9.84154 53.1015L9.83569 53.0995L9.70868 53.0532C9.02614 52.8048 8.27288 52.8377 7.61459 53.1447C6.9563 53.4516 6.44692 54.0075 6.1985 54.6901C5.95008 55.3726 5.98296 56.1259 6.28993 56.7841C6.59689 57.4424 7.15279 57.9518 7.83532 58.2002L8.07623 58.2879C8.5782 58.4729 9.01513 58.8006 9.33323 59.2307C9.65105 59.6605 9.83639 60.1737 9.86649 60.7073C9.90263 61.2537 9.77441 61.7984 9.49831 62.2714C9.22197 62.7447 8.81017 63.1244 8.31602 63.3615L8.31338 63.3627L8.19788 63.4166C7.87161 63.5685 7.57836 63.7833 7.33514 64.0486C7.09192 64.3139 6.90337 64.6245 6.78027 64.9627C6.65718 65.3009 6.60195 65.66 6.61775 66.0196C6.63355 66.3791 6.72007 66.7321 6.87235 67.0582L6.87247 67.0584C7.02439 67.3847 7.23913 67.6778 7.50441 67.921C7.76969 68.1642 8.08031 68.3528 8.41851 68.4759C8.75671 68.599 9.11585 68.6542 9.47541 68.6384C9.83496 68.6226 10.1879 68.5361 10.514 68.3838L10.6323 68.3287C11.1315 68.1025 11.6871 68.0311 12.2273 68.1237C12.7648 68.2158 13.2625 68.466 13.6571 68.8422C14.0742 69.1968 14.3758 69.6682 14.5228 70.1957C14.6705 70.7259 14.6554 71.2883 14.4793 71.8098L14.4772 71.8157L14.431 71.9427C14.1826 72.6252 14.2155 73.3785 14.5224 74.0368C14.8294 74.6951 15.3853 75.2044 16.0678 75.4529C16.7504 75.7013 17.5036 75.6684 18.1619 75.3614C18.8202 75.0545 19.3296 74.4986 19.578 73.816L19.6653 73.5761L19.6657 73.5751C19.8507 73.0732 20.1784 72.6362 20.6085 72.3181C21.0382 72.0003 21.5514 71.815 22.0849 71.7849C22.6314 71.7487 23.1762 71.8769 23.6491 72.153C24.1224 72.4294 24.5021 72.8412 24.7392 73.3353L24.7405 73.338L24.7944 73.4535C24.9463 73.7797 25.1611 74.073 25.4264 74.3162C25.6916 74.5594 26.0022 74.748 26.3404 74.8711C26.6786 74.9942 27.0378 75.0494 27.3973 75.0336C27.7569 75.0178 28.1098 74.9313 28.4359 74.779L28.4362 74.7789C28.7625 74.627 29.0556 74.4122 29.2988 74.1469C29.542 73.8817 29.7306 73.571 29.8537 73.2329C29.9768 72.8947 30.032 72.5355 30.0162 72.176C30.0004 71.8164 29.9139 71.4635 29.7616 71.1374L29.7064 71.0191C29.4803 70.5198 29.4089 69.9643 29.5015 69.4241C29.594 68.8843 29.8459 68.3845 30.2249 67.9892C30.5909 67.5998 31.0628 67.3258 31.5824 67.2009C32.1026 67.0759 32.6479 67.1057 33.1513 67.2867L33.1523 67.287L33.2794 67.3333C33.9619 67.5817 34.7152 67.5488 35.3734 67.2418C36.0317 66.9349 36.5411 66.379 36.7895 65.6964C37.038 65.0139 37.0051 64.2606 36.6981 63.6023C36.3911 62.9441 35.8352 62.4347 35.1527 62.1863L34.9128 62.0989L34.9118 62.0986C34.4098 61.9136 33.9729 61.5859 33.6548 61.1558C33.3367 60.7256 33.1513 60.2119 33.1215 59.6778C33.1195 59.6419 33.1248 59.6061 33.137 59.5723L33.1595 59.5106C33.1354 58.9829 33.2641 58.4591 33.5308 58.0022C33.8072 57.5289 34.219 57.1492 34.7131 56.9121L34.7157 56.9109L34.8312 56.857C35.1575 56.7051 35.4508 56.4903 35.694 56.225C35.9372 55.9597 36.1258 55.6491 36.2488 55.3109C36.3719 54.9727 36.4272 54.6136 36.4114 54.254C36.3956 53.8945 36.3091 53.5415 36.1568 53.2154L36.1567 53.2152C36.0047 52.8889 35.79 52.5958 35.5247 52.3526C35.2594 52.1093 34.9488 51.9208 34.6106 51.7977C34.2724 51.6746 33.9133 51.6194 33.5537 51.6352C33.1942 51.651 32.8412 51.7375 32.5151 51.8898L32.3969 51.9449C31.8976 52.1711 31.342 52.2424 30.8018 52.1499C30.2621 52.0574 29.7624 51.8055 29.367 51.4266C28.9776 51.0605 28.7036 50.5886 28.5787 50.069C28.4537 49.5488 28.4835 49.0034 28.6644 48.5L28.6648 48.499L28.711 48.372C28.9594 47.6895 28.9266 46.9362 28.6196 46.2779C28.3126 45.6196 27.7567 45.1102 27.0742 44.8618ZM24.7561 44.4729C25.5418 44.1065 26.4409 44.0672 27.2555 44.3637C28.0701 44.6602 28.7336 45.2682 29.1 46.0539C29.4664 46.8396 29.5056 47.7387 29.2091 48.5533L29.1632 48.6793C29.1632 48.6795 29.1631 48.6796 29.1631 48.6798C29.0172 49.0858 28.9932 49.5256 29.0941 49.9451C29.1949 50.3647 29.4163 50.7457 29.7309 51.0411L29.733 51.0431C30.0521 51.3492 30.4555 51.5528 30.8913 51.6274C31.3267 51.702 31.7744 51.6446 32.1769 51.4626C32.1773 51.4625 32.1777 51.4623 32.1782 51.4621L32.2909 51.4095C32.2908 51.4095 32.2909 51.4095 32.2909 51.4095C32.68 51.2278 33.1014 51.1245 33.5304 51.1056C33.9596 51.0868 34.3883 51.1527 34.7919 51.2996C35.1956 51.4465 35.5663 51.6716 35.8829 51.9619C36.1995 52.2521 36.4557 52.6019 36.637 52.9912C36.8188 53.3804 36.9221 53.8016 36.9409 54.2307C36.9598 54.6599 36.8939 55.0885 36.7469 55.4922C36.6 55.8959 36.375 56.2666 36.0847 56.5832C35.7944 56.8998 35.4445 57.1561 35.0551 57.3375L34.9424 57.39C34.942 57.3902 34.9415 57.3904 34.9411 57.3906C34.543 57.582 34.2113 57.888 33.9886 58.2695C33.7656 58.6514 33.6622 59.0912 33.6916 59.5324C33.6941 59.5692 33.6888 59.6061 33.6762 59.6407L33.6543 59.701C33.6872 60.1129 33.8348 60.5078 34.081 60.8406C34.3375 61.1874 34.6898 61.4518 35.0946 61.601L35.334 61.6882C36.1486 61.9847 36.8121 62.5926 37.1785 63.3783C37.5449 64.164 37.5841 65.0631 37.2876 65.8777C36.9911 66.6924 36.3832 67.3558 35.5975 67.7222C34.8118 68.0886 33.9127 68.1279 33.0981 67.8314L32.972 67.7855C32.9719 67.7854 32.9717 67.7854 32.9716 67.7853C32.5656 67.6395 32.1258 67.6155 31.7063 67.7163C31.2866 67.8172 30.9056 68.0385 30.6102 68.3531L30.6083 68.3552C30.3021 68.6743 30.0986 69.0777 30.0239 69.5136C29.9493 69.9489 30.0067 70.3966 30.1887 70.799C30.1889 70.7995 30.1891 70.7999 30.1893 70.8004L30.2419 70.9131C30.2418 70.9131 30.2419 70.9131 30.2419 70.9131C30.4236 71.3023 30.5269 71.7236 30.5457 72.1527C30.5646 72.5818 30.4987 73.0105 30.3518 73.4141C30.2048 73.8178 29.9798 74.1885 29.6895 74.5052C29.3992 74.8217 29.0494 75.078 28.6601 75.2593C28.2709 75.4411 27.8497 75.5443 27.4206 75.5632C26.9915 75.582 26.5628 75.5161 26.1592 75.3692C25.7555 75.2223 25.3848 74.9972 25.0681 74.7069C24.7515 74.4167 24.4953 74.0669 24.3139 73.6775C24.3139 73.6774 24.314 73.6775 24.3139 73.6775L24.2613 73.5646C24.2611 73.5642 24.2609 73.5637 24.2607 73.5633C24.0694 73.1652 23.7633 72.8335 23.3819 72.6108C23 72.3879 22.5601 72.2844 22.1189 72.3138L22.1161 72.314C21.6852 72.3381 21.2707 72.4877 20.9237 72.7443C20.5768 73.0008 20.3125 73.3532 20.1632 73.7579C20.1632 73.7581 20.1631 73.7582 20.1631 73.7584L20.0761 73.9973C19.7796 74.812 19.1716 75.4755 18.3859 75.8418C17.6002 76.2082 16.7012 76.2475 15.8865 75.951C15.0719 75.6545 14.4084 75.0465 14.042 74.2608C13.6757 73.4751 13.6364 72.576 13.9329 71.7614L13.9781 71.6374C14.1192 71.2174 14.1311 70.7648 14.0122 70.338C13.893 69.9103 13.6478 69.5283 13.3086 69.2417C13.3063 69.2398 13.304 69.2378 13.3018 69.2358C13.2999 69.234 13.298 69.2323 13.2962 69.2305C12.9771 68.9244 12.5736 68.7208 12.1378 68.6462C11.7024 68.5716 11.2547 68.629 10.8523 68.8109C10.8518 68.8111 10.8514 68.8113 10.851 68.8115L10.7383 68.8641C10.349 69.0459 9.92782 69.1491 9.49868 69.168C9.06953 69.1868 8.64087 69.1209 8.23722 68.974C7.83356 68.8271 7.46282 68.602 7.1462 68.3117C6.82957 68.0214 6.57327 67.6716 6.39195 67.2822C6.21027 66.893 6.10705 66.4719 6.0882 66.0428C6.06934 65.6137 6.13526 65.185 6.28218 64.7814C6.4291 64.3777 6.65414 64.007 6.94443 63.6904C7.23469 63.3738 7.5845 63.1175 7.97387 62.9362C7.97382 62.9362 7.97391 62.9362 7.97387 62.9362L8.08672 62.8836C8.08715 62.8834 8.08757 62.8832 8.088 62.883C8.48609 62.6916 8.81785 62.3856 9.04055 62.0041C9.26349 61.6222 9.36692 61.1823 9.33751 60.7411L9.33732 60.7383C9.31323 60.3074 9.16368 59.8929 8.90705 59.5459C8.65052 59.199 8.29819 58.9347 7.89342 58.7855C7.89326 58.7854 7.89311 58.7854 7.89295 58.7853L7.65403 58.6983C6.83939 58.4018 6.1759 57.7939 5.80953 57.0082C5.44315 56.2225 5.4039 55.3234 5.7004 54.5088C5.99691 53.6941 6.60488 53.0306 7.39058 52.6643C8.17627 52.2979 9.07533 52.2586 9.88997 52.5551L10.014 52.6003C10.4339 52.7415 10.8866 52.7534 11.3133 52.6344C11.7411 52.5152 12.1231 52.27 12.4097 51.9308C12.4133 51.9266 12.417 51.9224 12.4209 51.9184C12.727 51.5993 12.9305 51.1958 13.0052 50.76C13.0798 50.3247 13.0224 49.8769 12.8404 49.4745L12.7873 49.3605C12.6055 48.9713 12.5023 48.5501 12.4834 48.1209C12.4645 47.6918 12.5305 47.2631 12.6774 46.8595C12.8243 46.4558 13.0493 46.0851 13.3396 45.7684C13.6299 45.4518 13.9798 45.1955 14.3692 45.0142C14.7583 44.8325 15.1795 44.7293 15.6085 44.7104C16.0377 44.6916 16.4663 44.7575 16.87 44.9044C17.2736 45.0513 17.6444 45.2764 17.961 45.5667C18.2776 45.8569 18.5339 46.2067 18.7152 46.5961C18.7152 46.5961 18.7152 46.5961 18.7152 46.5961L18.7684 46.7103C18.9597 47.1083 19.2658 47.4401 19.6473 47.6628C20.0291 47.8857 20.469 47.9892 20.9102 47.9597C20.947 47.9573 20.9839 47.9625 21.0185 47.9751L21.0788 47.9971C21.4907 47.9642 21.8855 47.8165 22.2183 47.5704C22.5652 47.3138 22.8295 46.9615 22.9788 46.5567L23.0659 46.3174C23.3624 45.5027 23.9704 44.8392 24.7561 44.4729Z" fill="#845EF7"/>
<path d="M32.2909 51.4095L32.1782 51.4621C32.1777 51.4623 32.1773 51.4625 32.1769 51.4626C31.7744 51.6446 31.3267 51.702 30.8913 51.6274C30.4555 51.5528 30.0521 51.3492 29.733 51.0431L29.7309 51.0411C29.4163 50.7457 29.1949 50.3647 29.0941 49.9451C28.9932 49.5256 29.0172 49.0858 29.1631 48.6798C29.1631 48.6796 29.1632 48.6795 29.1632 48.6793L29.2091 48.5533C29.5056 47.7387 29.4664 46.8396 29.1 46.0539C28.7336 45.2682 28.0701 44.6602 27.2555 44.3637C26.4409 44.0672 25.5418 44.1065 24.7561 44.4729C23.9704 44.8392 23.3624 45.5027 23.0659 46.3174L22.9788 46.5567C22.8295 46.9615 22.5652 47.3138 22.2183 47.5704C21.8855 47.8165 21.4907 47.9642 21.0788 47.9971L21.0185 47.9751C20.9839 47.9625 20.947 47.9573 20.9102 47.9597C20.469 47.9892 20.0291 47.8857 19.6473 47.6628C19.2658 47.4401 18.9597 47.1083 18.7684 46.7103L18.7152 46.5961M32.2909 51.4095C32.2908 51.4095 32.2909 51.4095 32.2909 51.4095ZM32.2909 51.4095C32.68 51.2278 33.1014 51.1245 33.5304 51.1056C33.9596 51.0868 34.3883 51.1527 34.7919 51.2996C35.1956 51.4465 35.5663 51.6716 35.8829 51.9619C36.1995 52.2521 36.4557 52.6019 36.637 52.9912C36.8188 53.3804 36.9221 53.8016 36.9409 54.2307C36.9598 54.6599 36.8939 55.0885 36.7469 55.4922C36.6 55.8959 36.375 56.2666 36.0847 56.5832C35.7944 56.8998 35.4445 57.1561 35.0551 57.3375L34.9424 57.39C34.942 57.3902 34.9415 57.3904 34.9411 57.3906C34.543 57.582 34.2113 57.888 33.9886 58.2695C33.7656 58.6514 33.6622 59.0912 33.6916 59.5324C33.6941 59.5692 33.6888 59.6061 33.6762 59.6407L33.6543 59.701C33.6872 60.1129 33.8348 60.5078 34.081 60.8406C34.3375 61.1874 34.6898 61.4518 35.0946 61.601L35.334 61.6882C36.1486 61.9847 36.8121 62.5926 37.1785 63.3783C37.5449 64.164 37.5841 65.0631 37.2876 65.8777C36.9911 66.6924 36.3832 67.3558 35.5975 67.7222C34.8118 68.0886 33.9127 68.1279 33.0981 67.8314L32.972 67.7855C32.9719 67.7854 32.9717 67.7854 32.9716 67.7853C32.5656 67.6395 32.1258 67.6155 31.7063 67.7163C31.2866 67.8172 30.9056 68.0385 30.6102 68.3531L30.6083 68.3552C30.3021 68.6743 30.0986 69.0777 30.0239 69.5136C29.9493 69.9489 30.0067 70.3966 30.1887 70.799C30.1889 70.7995 30.1891 70.7999 30.1893 70.8004L30.2419 70.9131M30.2419 70.9131C30.2418 70.9131 30.2419 70.9131 30.2419 70.9131ZM30.2419 70.9131C30.4236 71.3023 30.5269 71.7236 30.5457 72.1527C30.5646 72.5818 30.4987 73.0105 30.3518 73.4141C30.2048 73.8178 29.9798 74.1885 29.6895 74.5052C29.3992 74.8217 29.0494 75.078 28.6601 75.2593M28.6601 75.2593C28.2709 75.4411 27.8497 75.5443 27.4206 75.5632C26.9915 75.582 26.5628 75.5161 26.1592 75.3692C25.7555 75.2223 25.3848 74.9972 25.0681 74.7069C24.7515 74.4167 24.4953 74.0669 24.3139 73.6775M28.6601 75.2593C28.6601 75.2593 28.66 75.2594 28.6601 75.2593ZM28.6601 75.2593L28.5481 75.0191M24.3139 73.6775C24.314 73.6775 24.3139 73.6774 24.3139 73.6775ZM24.3139 73.6775L24.2613 73.5646C24.2611 73.5642 24.2609 73.5637 24.2607 73.5633C24.0694 73.1652 23.7633 72.8335 23.3819 72.6108C23 72.3879 22.5601 72.2844 22.1189 72.3138L22.1161 72.314C21.6852 72.3381 21.2707 72.4877 20.9237 72.7443C20.5768 73.0008 20.3125 73.3532 20.1632 73.7579C20.1632 73.7581 20.1631 73.7582 20.1631 73.7584L20.0761 73.9973C19.7796 74.812 19.1716 75.4755 18.3859 75.8418C17.6002 76.2082 16.7012 76.2475 15.8865 75.951C15.0719 75.6545 14.4084 75.0465 14.042 74.2608C13.6757 73.4751 13.6364 72.576 13.9329 71.7614L13.9781 71.6374C14.1192 71.2174 14.1311 70.7648 14.0122 70.338C13.893 69.9103 13.6478 69.5283 13.3086 69.2417C13.3063 69.2398 13.304 69.2378 13.3018 69.2358C13.2999 69.234 13.298 69.2323 13.2962 69.2305C12.9771 68.9244 12.5736 68.7208 12.1378 68.6462C11.7024 68.5716 11.2547 68.629 10.8523 68.8109C10.8518 68.8111 10.8514 68.8113 10.851 68.8115L10.7383 68.8641C10.349 69.0459 9.92782 69.1491 9.49867 69.168C9.06953 69.1868 8.64087 69.1209 8.23722 68.974C7.83356 68.8271 7.46282 68.602 7.1462 68.3117C6.82957 68.0214 6.57327 67.6716 6.39195 67.2822C6.21027 66.893 6.10705 66.4719 6.0882 66.0428C6.06934 65.6137 6.13526 65.185 6.28218 64.7814C6.4291 64.3777 6.65414 64.007 6.94443 63.6904C7.23469 63.3738 7.5845 63.1175 7.97387 62.9362M7.97387 62.9362C7.97382 62.9362 7.97391 62.9362 7.97387 62.9362ZM7.97387 62.9362L8.08672 62.8836C8.08715 62.8834 8.08757 62.8832 8.088 62.883C8.48609 62.6916 8.81785 62.3856 9.04055 62.0041C9.26349 61.6222 9.36692 61.1823 9.33751 60.7411L9.33732 60.7383C9.31323 60.3074 9.16368 59.8929 8.90705 59.5459C8.65052 59.199 8.29819 58.9347 7.89342 58.7855C7.89326 58.7854 7.89311 58.7854 7.89295 58.7853L7.65403 58.6983C6.83939 58.4018 6.1759 57.7939 5.80953 57.0082C5.44315 56.2225 5.4039 55.3234 5.7004 54.5088C5.99691 53.6941 6.60488 53.0306 7.39058 52.6643C8.17627 52.2979 9.07533 52.2586 9.88997 52.5551L10.014 52.6003C10.4339 52.7415 10.8866 52.7534 11.3133 52.6344C11.7411 52.5152 12.1231 52.27 12.4097 51.9308C12.4133 51.9266 12.417 51.9224 12.4209 51.9184C12.727 51.5993 12.9305 51.1959 13.0052 50.76C13.0798 50.3247 13.0224 49.8769 12.8404 49.4745L12.7873 49.3605C12.6055 48.9713 12.5023 48.5501 12.4834 48.1209C12.4645 47.6918 12.5305 47.2631 12.6774 46.8595C12.8243 46.4558 13.0493 46.0851 13.3396 45.7684C13.6299 45.4518 13.9798 45.1955 14.3692 45.0142C14.7583 44.8325 15.1795 44.7293 15.6085 44.7104C16.0377 44.6916 16.4663 44.7575 16.87 44.9044C17.2736 45.0513 17.6444 45.2764 17.961 45.5667C18.2776 45.8569 18.5339 46.2067 18.7152 46.5961M18.7152 46.5961C18.7152 46.5961 18.7152 46.5961 18.7152 46.5961ZM24.9801 44.9533C25.6384 44.6463 26.3917 44.6134 27.0742 44.8618C27.7567 45.1102 28.3126 45.6196 28.6196 46.2779C28.9266 46.9362 28.9594 47.6895 28.711 48.372L28.6648 48.499L28.6644 48.5C28.4835 49.0034 28.4537 49.5488 28.5787 50.069C28.7036 50.5886 28.9776 51.0605 29.367 51.4266C29.7624 51.8055 30.2621 52.0574 30.8018 52.1499C31.342 52.2424 31.8976 52.1711 32.3969 51.9449L32.5151 51.8898C32.8412 51.7375 33.1942 51.651 33.5537 51.6352C33.9133 51.6194 34.2724 51.6746 34.6106 51.7977C34.9488 51.9208 35.2594 52.1093 35.5247 52.3526C35.79 52.5958 36.0047 52.8889 36.1567 53.2152L36.1568 53.2154C36.3091 53.5415 36.3956 53.8945 36.4114 54.254C36.4272 54.6136 36.3719 54.9727 36.2488 55.3109C36.1258 55.6491 35.9372 55.9597 35.694 56.225C35.4508 56.4903 35.1575 56.7051 34.8312 56.857L34.7157 56.9109L34.7131 56.9121C34.2189 57.1492 33.8072 57.5289 33.5308 58.0022C33.2641 58.4591 33.1354 58.9829 33.1595 59.5106L33.137 59.5723C33.1248 59.6061 33.1195 59.6419 33.1215 59.6778C33.1513 60.2119 33.3367 60.7256 33.6548 61.1558C33.9729 61.5859 34.4098 61.9136 34.9118 62.0986L34.9128 62.0989L35.1527 62.1863C35.8352 62.4347 36.3911 62.9441 36.6981 63.6023C37.0051 64.2606 37.038 65.0139 36.7895 65.6964C36.5411 66.379 36.0317 66.9349 35.3734 67.2418C34.7152 67.5488 33.9619 67.5817 33.2794 67.3333L33.1523 67.287L33.1513 67.2867C32.6479 67.1057 32.1026 67.0759 31.5824 67.2009C31.0628 67.3258 30.5909 67.5998 30.2249 67.9892C29.8459 68.3845 29.594 68.8843 29.5015 69.4241C29.4089 69.9643 29.4803 70.5198 29.7064 71.0191L29.7616 71.1374C29.9139 71.4635 30.0004 71.8164 30.0162 72.176C30.032 72.5355 29.9768 72.8947 29.8537 73.2328C29.7306 73.571 29.542 73.8817 29.2988 74.1469C29.0556 74.4122 28.7625 74.627 28.4362 74.7789L28.4359 74.779C28.1098 74.9313 27.7569 75.0178 27.3973 75.0336C27.0378 75.0494 26.6786 74.9942 26.3404 74.8711C26.0023 74.748 25.6916 74.5594 25.4264 74.3162C25.1611 74.073 24.9463 73.7797 24.7944 73.4535L24.7405 73.338L24.7392 73.3353C24.5021 72.8412 24.1224 72.4294 23.6491 72.153C23.1762 71.8769 22.6314 71.7487 22.0849 71.7849C21.5514 71.815 21.0382 72.0003 20.6085 72.3181C20.1784 72.6362 19.8507 73.0732 19.6657 73.5751L19.6653 73.5761L19.578 73.816C19.3296 74.4986 18.8202 75.0545 18.1619 75.3614C17.5036 75.6684 16.7504 75.7013 16.0678 75.4529C15.3853 75.2044 14.8294 74.6951 14.5224 74.0368C14.2155 73.3785 14.1826 72.6252 14.431 71.9427L14.4772 71.8157L14.4793 71.8098C14.6554 71.2883 14.6705 70.7259 14.5228 70.1957C14.3757 69.6682 14.0742 69.1968 13.6571 68.8422C13.2625 68.466 12.7648 68.2158 12.2273 68.1237C11.6871 68.0311 11.1315 68.1025 10.6323 68.3287L10.514 68.3838C10.1879 68.5361 9.83496 68.6226 9.47541 68.6384C9.11585 68.6542 8.75671 68.599 8.41851 68.4759C8.08031 68.3528 7.76969 68.1642 7.50441 67.921C7.23913 67.6778 7.02439 67.3847 6.87247 67.0584L6.87235 67.0582C6.72007 66.7321 6.63355 66.3791 6.61775 66.0196C6.60195 65.66 6.65718 65.3009 6.78027 64.9627C6.90337 64.6245 7.09192 64.3139 7.33514 64.0486C7.57836 63.7833 7.87161 63.5685 8.19788 63.4166L8.31338 63.3627L8.31602 63.3615C8.81017 63.1244 9.22197 62.7447 9.49831 62.2714C9.77441 61.7984 9.90263 61.2537 9.86649 60.7073C9.83639 60.1737 9.65105 59.6605 9.33323 59.2307C9.01513 58.8006 8.5782 58.4729 8.07623 58.2879L7.83532 58.2002C7.15279 57.9518 6.59689 57.4424 6.28993 56.7841C5.98296 56.1259 5.95008 55.3726 6.1985 54.6901C6.44692 54.0075 6.9563 53.4516 7.61459 53.1447C8.27288 52.8377 9.02614 52.8048 9.70868 53.0532L9.83569 53.0995L9.84154 53.1015C10.363 53.2776 10.9254 53.2928 11.4556 53.145C11.9832 52.998 12.4545 52.6964 12.8092 52.2793C13.1854 51.8848 13.4356 51.387 13.5277 50.8495C13.6202 50.3093 13.5488 49.7538 13.3227 49.2545L13.2675 49.1362C13.1153 48.8101 13.0287 48.4572 13.0129 48.0976C12.9971 47.7381 13.0524 47.3789 13.1755 47.0407C13.2986 46.7025 13.4871 46.3919 13.7303 46.1266C13.9736 45.8614 14.2667 45.6466 14.5929 45.4947L14.5932 45.4946C14.9193 45.3423 15.2722 45.2558 15.6318 45.24C15.9913 45.2242 16.3505 45.2794 16.6887 45.4025C17.0269 45.5256 17.3375 45.7141 17.6028 45.9574C17.8681 46.2006 18.0829 46.4938 18.2348 46.8201L18.2886 46.9356L18.2899 46.9383C18.527 47.4324 18.9067 47.8442 19.38 48.1205C19.8368 48.3873 20.3607 48.516 20.8883 48.4918L20.9501 48.5143C20.9838 48.5266 21.0197 48.5319 21.0555 48.5299C21.5897 48.5 22.1034 48.3147 22.5335 47.9966C22.9636 47.6785 23.2914 47.2415 23.4763 46.7396L23.4767 46.7386L23.564 46.4986C23.8124 45.8161 24.3218 45.2602 24.9801 44.9533Z" stroke="#845EF7" stroke-linecap="round" stroke-linejoin="round"/>
</svg>
